<?xml version="1.0" encoding="utf-8"?>
<!-- Generator: Adobe Illustrator 21.0.0, SVG Export Plug-In . SVG Version: 6.00 Build 0)  -->
<svg version="1.1" id="Слой_1" xmlns="http://www.w3.org/2000/svg" xmlns:xlink="http://www.w3.org/1999/xlink" x="0px" y="0px"
	 viewBox="0 0 8 8" style="enable-background:new 0 0 8 8;" xml:space="preserve">
<title>Group 9</title>
<desc>Created with Sketch.</desc>
<path d="M7,0H1C0.5,0,0,0.5,0,1v6c0,0.6,0.5,1,1,1h6c0.6,0,1-0.5,1-1V1C8,0.5,7.5,0,7,0z M6.2,2.9L3.7,5.6C3.7,5.7,3.6,5.7,3.5,5.7
	c0,0,0,0,0,0c-0.1,0-0.2,0-0.2-0.1L2.1,4.4C2,4.3,2,4.1,2.1,3.9c0.1-0.1,0.3-0.1,0.5,0l0.9,0.9l2.2-2.4c0.1-0.1,0.3-0.2,0.5,0
	C6.3,2.5,6.3,2.8,6.2,2.9z"/>
</svg>
